<svg xmlns="http://www.w3.org/2000/svg" width="1515.38" height="281.6" viewBox="0 0 1515.38 281.6"><rect x="207.2" y="100.02" width="21.3" height="75" fill="none"/><polygon points="815.59 97.62 791.59 97.62 791.59 125.82 815.59 122.52 815.59 97.62" fill="none"/><polygon points="667.39 237.12 667.39 207.72 655.91 218.82 655.91 218.82 645.5 229.23 645.5 237.12 667.39 237.12" fill="none"/><rect x="645.49" y="100.32" width="21.9" height="75.9" fill="none"/><rect x="943.69" y="47.52" width="22.2" height="37.8" fill="none"/><polygon points="519.79 97.62 495.8 97.62 495.8 125.82 519.79 122.52 519.79 97.62" fill="none"/><polygon points="1117.09 97.62 1093.09 97.62 1093.09 125.82 1117.09 122.52 1117.09 97.62" fill="none"/><polygon points="574.16 226.62 90.12 226.62 58.13 196.32 58.1 170.52 58.1 50.22 78.8 50.22 78.8 125.82 134.9 118.32 134.9 30.72 106.1 2.22 30.5 2.22 2 30.75 2 246.23 35.41 279.52 574.1 279.52 574.16 226.62" stroke="blue" stroke-miterlimit="10" stroke-width="4"/><path d="M427.18,547.09l22.5-22.2V407.29l-22.2-21H342l-22.2,21v117.6l22.5,22.2Zm-53.1-118.5h21.3v75h-21.3Z" transform="translate(-166.88 -328.58)" stroke="blue" stroke-miterlimit="10" stroke-width="4"/><rect x="300.2" y="2.22" width="53.7" height="216.3" stroke="blue" stroke-miterlimit="10" stroke-width="4"/><rect x="371.3" y="2.22" width="53.7" height="216.3" stroke="blue" stroke-miterlimit="10" stroke-width="4"/><path d="M718.48,547.09l21-21v-33h-54.3v11.7h-22.5v-20.4l78.3-10.5v-66.3l-21-21.3h-89.4l-21.3,21.3v117.6l23.1,21.9Zm-55.8-120.9h24v24.9l-24,3.3Z" transform="translate(-166.88 -328.58)" stroke="blue" stroke-miterlimit="10" stroke-width="4"/><polygon points="645.5 226.62 594.79 226.62 594.79 250.92 606.77 267.96 645.5 229.23 645.5 226.62" stroke="blue" stroke-miterlimit="10" stroke-width="4"/><polygon points="655.91 218.82 655.91 218.82 667.39 207.72 667.39 237.12 645.5 237.12 645.5 229.23 606.77 267.96 614.89 279.52 698.29 279.52 720.79 249.98 720.79 153.93 655.91 218.82" fill="#1a1a1a" stroke="blue" stroke-miterlimit="10" stroke-width="4"/><path d="M887.68,386.29h-53.4v11.1l-11.1-11.1H780l-21.6,21.65V525.15l22.07,22.24h42.34l64.89-64.89Zm-53.4,118.5h-21.9v-75.9h21.9Z" transform="translate(-166.88 -328.58)" stroke="blue" stroke-miterlimit="10" stroke-width="4"/><path d="M928.18,547.09h86.1l21-21v-33H981v11.7h-22.5v-20.4l78.3-10.5v-66.3l-21-21.3H983.89L905.08,465.1v60.09Zm30.3-120.9h24v24.9l-24,3.3Z" transform="translate(-166.88 -328.58)" fill="#1a1a1a" stroke="blue" stroke-miterlimit="10" stroke-width="4"/><polygon points="759.49 57.72 738.19 79.02 738.19 136.53 817 57.72 759.49 57.72" stroke="blue" stroke-miterlimit="10" stroke-width="4"/><path d="M1054.17,547.09h56.4v-87h22.2v87h56.11v-87.9l-22.81-22.5,22.81-23.76V359.37l-28.44-28.58H1054.17Zm56.4-171h22.2v37.8h-22.2Z" transform="translate(-166.88 -328.58)" fill="#1a1a1a" stroke="blue" stroke-miterlimit="10" stroke-width="4"/><path d="M1315.77,547.09l21-21v-33h-54.3v11.7H1260v-20.4l78.3-10.5v-66.3l-21-21.3h-89.4l-21.3,21.3v117.6l23.1,21.9ZM1260,426.19h24v24.9l-24,3.3Z" transform="translate(-166.88 -328.58)" fill="#1a1a1a" stroke="blue" stroke-miterlimit="10" stroke-width="4"/><polygon points="1183.39 100.02 1195.99 100.02 1195.99 196.62 1217.81 218.52 1274.29 218.52 1274.29 175.02 1249.69 175.02 1249.69 100.02 1274.59 100.02 1274.59 57.72 1249.69 57.72 1249.69 2.22 1195.99 2.22 1195.99 57.72 1183.39 57.72 1183.39 100.02" fill="#1a1a1a" stroke="blue" stroke-miterlimit="10" stroke-width="4"/><polygon points="1283.29 57.72 1283.29 218.52 1337.59 218.52 1337.59 99.42 1374.79 99.42 1374.79 57.72 1349.38 57.72 1337.59 69.12 1337.59 57.72 1283.29 57.72" fill="#1a1a1a" stroke="blue" stroke-miterlimit="10" stroke-width="4"/><polygon points="738.19 279.52 1513.38 249.42 1513.38 226.62 738.19 226.62 738.19 279.52" fill="#1a1a1a" stroke="blue" stroke-miterlimit="10" stroke-width="4"/><polygon points="1491.19 2.22 1258.57 2.22 1258.57 49.59 1513.38 49.59 1513.38 23.22 1491.19 2.22" fill="#1a1a1a" stroke="blue" stroke-miterlimit="10" stroke-width="4"/><polygon points="1459.09 100.02 1459.09 175.02 1437.79 175.02 1437.79 100.02 1448.43 100.02 1448.43 57.72 1405.69 57.72 1383.48 78.72 1383.48 196.32 1405.98 218.52 1490.88 218.52 1513.38 196.32 1513.38 57.72 1459.09 57.72 1459.09 100.02" fill="#1a1a1a" stroke="blue" stroke-miterlimit="10" stroke-width="4"/><rect x="1039.69" y="2.22" width="147.46" height="47.37" fill="#1a1a1a" stroke="blue" stroke-miterlimit="10" stroke-width="4"/><polygon points="869.89 2.22 442.4 24.87 442.4 49.84 824.88 49.84 869.89 4.83 869.89 2.22" stroke="blue" stroke-miterlimit="10" stroke-width="4"/><polygon points="869.89 4.83 824.88 49.84 869.89 49.84 869.89 4.83" stroke="blue" stroke-miterlimit="10" stroke-width="4"/></svg>